<svg width="320" height="84" viewBox="0 0 320 84" fill="none" xmlns="http://www.w3.org/2000/svg">
<path fill-rule="evenodd" clip-rule="evenodd" d="M42.8775 5.11038C63.6708 5.11038 80.5378 21.6281 80.5378 42C80.5378 62.3679 63.675 78.8896 42.8775 78.8896C22.0799 78.8896 5.21714 62.3719 5.21714 42C5.21714 21.6321 22.0841 5.11038 42.8775 5.11038ZM42.8775 0C66.553 0 85.7549 18.809 85.7549 42C85.7549 65.191 66.553 84 42.8775 84C19.2019 84 0 65.191 0 42C0 18.809 19.2019 0 42.8775 0ZM56.4863 41.239C52.7771 41.239 49.7696 44.1849 49.7696 47.8182C49.7696 51.4515 52.7771 54.3975 56.4863 54.3975C60.1955 54.3975 63.203 51.4515 63.203 47.8182C63.203 44.1849 60.1955 41.239 56.4863 41.239ZM56.4863 36.1368C54.7988 36.1368 53.199 36.4805 51.7454 37.0942C51.4697 37.2129 51.1773 37.1883 50.9225 37.0246C50.6719 36.861 50.534 36.6073 50.534 36.3168V25.3514C50.534 24.8849 50.1455 24.5044 49.6694 24.5044H45.3127C44.8365 24.5044 44.4439 24.8849 44.4439 25.3514V57.4539C44.4439 57.9203 44.8323 58.3008 45.3127 58.3008H50.534V57.9367C52.2842 58.9268 54.3184 59.4956 56.4863 59.4956C63.0693 59.4956 68.4118 54.2624 68.4118 47.8141C68.4118 41.3699 63.0735 36.1368 56.4863 36.1368ZM29.2686 41.239C32.9778 41.239 35.9853 44.1849 35.9853 47.8182C35.9853 51.4515 32.9778 54.3975 29.2686 54.3975C25.5594 54.3975 22.5519 51.4515 22.5519 47.8182C22.5519 44.1849 25.5594 41.239 29.2686 41.239ZM29.2686 36.1368C30.952 36.1368 32.556 36.4805 34.0096 37.0983C34.2853 37.2129 34.5777 37.1883 34.8325 37.0287C35.0831 36.8651 35.2209 36.6155 35.2209 36.3209V25.3514C35.2209 24.8849 35.6094 24.5044 36.0898 24.5044H40.4464C40.9226 24.5044 41.3111 24.8849 41.3111 25.3514V57.4539C41.3111 57.9203 40.9226 58.3008 40.4464 58.3008H35.2209V57.9367C33.4707 58.9268 31.4365 59.4956 29.2686 59.4956C22.6856 59.4956 17.3431 54.2624 17.3431 47.8141C17.3431 41.3699 22.6814 36.1368 29.2686 36.1368ZM158.678 45.7307C158.732 43.4599 158.223 41.6719 157.137 40.3871C156.059 39.0901 154.463 38.4477 152.346 38.4477C151.251 38.4477 150.303 38.6523 149.48 39.0574C148.661 39.4502 147.976 39.9862 147.429 40.649C146.874 41.3118 146.443 42.0892 146.143 42.9648C145.842 43.8486 145.666 44.7692 145.633 45.7348H158.678V45.7307ZM163.114 47.0114C163.114 47.6906 162.939 48.1816 162.596 48.468C162.249 48.7544 161.857 48.8976 161.41 48.8976H145.629C145.629 50.211 145.767 51.3812 146.03 52.4368C146.293 53.4843 146.744 54.3762 147.371 55.125C147.993 55.8778 148.803 56.4588 149.798 56.8598C150.8 57.2608 152.016 57.4572 153.465 57.4572C154.605 57.4572 155.62 57.3672 156.514 57.179C157.4 56.9989 158.177 56.7944 158.824 56.5611C159.472 56.3402 160.01 56.1315 160.432 55.9556C160.85 55.7674 161.163 55.6774 161.381 55.6774C161.497 55.6774 161.619 55.706 161.711 55.7674C161.811 55.8287 161.882 55.9187 161.936 56.0456C161.99 56.1724 162.036 56.3402 162.061 56.557C162.082 56.7698 162.099 57.0398 162.099 57.3549C162.099 57.5881 162.091 57.7845 162.074 57.9441C162.057 58.1159 162.036 58.255 162.011 58.3901C161.982 58.5251 161.936 58.6397 161.873 58.746C161.811 58.8442 161.727 58.9506 161.635 59.0406C161.535 59.1388 161.243 59.3025 160.758 59.5152C160.282 59.728 159.655 59.9449 158.887 60.1576C158.118 60.3622 157.237 60.5504 156.23 60.7223C155.228 60.8859 154.15 60.9719 153.01 60.9719C151.03 60.9719 149.296 60.6936 147.809 60.1576C146.322 59.6134 145.073 58.8074 144.05 57.7436C143.035 56.6798 142.27 55.35 141.753 53.7379C141.243 52.13 140.976 50.2601 140.976 48.1325C140.976 46.1113 141.251 44.2905 141.778 42.6702C142.316 41.0623 143.085 39.6834 144.096 38.5582C145.098 37.433 146.314 36.5738 147.747 35.9642C149.171 35.3668 150.767 35.0599 152.529 35.0599C154.417 35.0599 156.026 35.3545 157.358 35.956C158.682 36.5452 159.777 37.3512 160.633 38.3495C161.493 39.352 162.112 40.5303 162.513 41.8806C162.913 43.239 163.114 44.6792 163.114 46.2135V47.0114ZM201.338 44.9206C201.338 43.5908 201.2 42.3265 200.929 41.1318C200.653 39.9452 200.19 38.8978 199.542 38.0018C198.886 37.118 198.034 36.4019 196.986 35.8741C195.937 35.3381 194.63 35.0681 193.08 35.0681C192.441 35.0681 191.802 35.1499 191.171 35.3177C190.532 35.4854 189.885 35.7473 189.221 36.1114C188.552 36.4756 187.851 36.9584 187.128 37.5599C186.409 38.1491 185.649 38.8733 184.847 39.7325C184.563 39.0369 184.2 38.4027 183.778 37.8299C183.348 37.2653 182.83 36.7743 182.228 36.3651C181.618 35.9519 180.921 35.6409 180.131 35.4077C179.338 35.1827 178.444 35.0681 177.437 35.0681C176.142 35.0681 174.856 35.4159 173.578 36.1033C172.299 36.7906 170.988 37.8831 169.634 39.3642V36.2465C169.634 36.1033 169.597 35.9887 169.547 35.8864C169.484 35.7964 169.371 35.7064 169.238 35.6286C169.091 35.5468 168.891 35.5018 168.636 35.4773C168.377 35.4527 168.051 35.4322 167.659 35.4322C167.249 35.4322 166.919 35.4486 166.673 35.4773C166.418 35.5059 166.218 35.5509 166.05 35.6286C165.896 35.7105 165.787 35.7964 165.733 35.8864C165.679 35.9846 165.649 36.1033 165.649 36.2465V59.818C165.649 59.953 165.687 60.0758 165.75 60.1658C165.804 60.264 165.925 60.3458 166.096 60.4154C166.259 60.485 166.489 60.5381 166.773 60.575C167.065 60.6077 167.421 60.6282 167.842 60.6282C168.289 60.6282 168.657 60.6077 168.945 60.575C169.229 60.5381 169.446 60.485 169.609 60.4154C169.764 60.3417 169.885 60.264 169.956 60.1658C170.027 60.0758 170.065 59.953 170.065 59.818V43.3413C171.268 41.856 172.4 40.7308 173.431 39.9616C174.463 39.1924 175.486 38.8078 176.506 38.8078C177.329 38.8078 178.03 38.9674 178.632 39.2824C179.225 39.5975 179.718 40.0516 180.11 40.6408C180.503 41.2423 180.795 41.946 180.996 42.7684C181.188 43.5827 181.288 44.4951 181.288 45.4852V59.8139C181.288 59.949 181.326 60.0717 181.38 60.1617C181.443 60.2599 181.564 60.3417 181.727 60.4113C181.898 60.4809 182.128 60.534 182.429 60.5709C182.721 60.6036 183.068 60.6241 183.477 60.6241C183.907 60.6241 184.262 60.6036 184.555 60.5709C184.839 60.534 185.064 60.4809 185.232 60.4113C185.407 60.3377 185.524 60.2599 185.595 60.1617C185.67 60.0717 185.703 59.949 185.703 59.8139V43.3372C186.927 41.8519 188.059 40.7267 189.083 39.9575C190.106 39.1883 191.125 38.8037 192.149 38.8037C192.963 38.8037 193.682 38.9633 194.283 39.2783C194.885 39.5934 195.39 40.0475 195.779 40.6367C196.171 41.2382 196.455 41.9419 196.639 42.7643C196.81 43.5786 196.902 44.491 196.902 45.4811V59.8098C196.902 59.9449 196.94 60.0676 197.011 60.1576C197.086 60.2558 197.203 60.3377 197.366 60.4072C197.541 60.4768 197.767 60.53 198.051 60.5668C198.335 60.5995 198.698 60.62 199.145 60.62C199.576 60.62 199.931 60.5995 200.215 60.5668C200.507 60.53 200.724 60.4768 200.891 60.4072C201.046 60.3336 201.163 60.2558 201.238 60.1576C201.301 60.0676 201.338 59.9449 201.338 59.8098V44.9206ZM208.949 59.8221C208.949 59.9571 208.911 60.0799 208.84 60.1699C208.765 60.2681 208.648 60.3499 208.494 60.4195C208.331 60.489 208.109 60.5422 207.829 60.5791C207.537 60.6159 207.174 60.6322 206.727 60.6322C206.305 60.6322 205.95 60.6118 205.657 60.5791C205.373 60.5422 205.148 60.489 204.981 60.4195C204.805 60.3458 204.688 60.2681 204.634 60.1699C204.571 60.0799 204.534 59.9571 204.534 59.8221V36.2465C204.534 36.1196 204.571 36.0133 204.634 35.9069C204.688 35.8005 204.809 35.7105 204.981 35.6491C205.144 35.5755 205.373 35.5223 205.657 35.4895C205.95 35.4527 206.305 35.4363 206.727 35.4363C207.174 35.4363 207.537 35.4527 207.829 35.4895C208.113 35.5264 208.331 35.5795 208.494 35.6491C208.648 35.7105 208.769 35.8005 208.84 35.9069C208.911 36.0133 208.949 36.1196 208.949 36.2465V59.8221ZM209.45 29.1517C209.45 30.1705 209.258 30.8579 208.865 31.2261C208.473 31.5943 207.75 31.7703 206.702 31.7703C205.661 31.7703 204.96 31.5903 204.575 31.2343C204.191 30.8742 203.999 30.2073 203.999 29.2049C203.999 28.1943 204.191 27.5069 204.584 27.1386C204.976 26.7745 205.695 26.5863 206.748 26.5863C207.788 26.5863 208.489 26.7663 208.874 27.1223C209.262 27.4782 209.45 28.1574 209.45 29.1517ZM226.129 37.7931C226.129 37.3921 226.129 37.0689 226.121 36.8357C226.112 36.6024 226.091 36.4224 226.066 36.2997C226.037 36.1728 226.012 36.0746 225.974 35.9969C225.937 35.915 225.866 35.8332 225.757 35.7473C225.657 35.6655 225.473 35.5795 225.21 35.4895C224.955 35.3995 224.663 35.33 224.341 35.2563C224.024 35.1868 223.711 35.1417 223.422 35.1131C223.13 35.0845 222.867 35.0681 222.629 35.0681C222.119 35.0681 221.605 35.1417 221.096 35.2645C220.582 35.3995 220.072 35.6327 219.563 35.9723C219.045 36.3119 218.493 36.7866 217.913 37.3757C217.336 37.9649 216.718 38.7341 216.058 39.6834V36.2465C216.058 36.1033 216.021 35.9887 215.966 35.8864C215.904 35.7964 215.795 35.7064 215.657 35.6286C215.511 35.5468 215.31 35.5018 215.056 35.4773C214.801 35.4486 214.471 35.4322 214.078 35.4322C213.669 35.4322 213.339 35.4486 213.092 35.4773C212.838 35.5018 212.637 35.5468 212.47 35.6286C212.316 35.7105 212.207 35.7964 212.153 35.8864C212.098 35.9846 212.069 36.1033 212.069 36.2465V59.818C212.069 59.953 212.107 60.0758 212.169 60.1658C212.224 60.264 212.345 60.3458 212.516 60.4154C212.679 60.485 212.909 60.5381 213.189 60.575C213.481 60.6118 213.836 60.6282 214.258 60.6282C214.705 60.6282 215.068 60.6118 215.361 60.575C215.645 60.5381 215.862 60.485 216.025 60.4154C216.179 60.3417 216.3 60.264 216.371 60.1658C216.447 60.0758 216.48 59.953 216.48 59.818V44.3069C217.102 43.3494 217.675 42.5352 218.188 41.8765C218.706 41.2136 219.203 40.6776 219.675 40.2767C220.139 39.8757 220.599 39.5893 221.025 39.4174C221.455 39.2415 221.881 39.1515 222.328 39.1515C222.704 39.1515 223.051 39.1883 223.376 39.2579C223.694 39.3315 223.978 39.4011 224.245 39.4829C224.5 39.5647 224.73 39.6343 224.939 39.7161C225.139 39.798 225.315 39.8307 225.461 39.8307C225.607 39.8307 225.716 39.7939 225.799 39.7161C225.874 39.6343 225.945 39.5279 226 39.3765C226.045 39.2333 226.079 39.0287 226.1 38.7587C226.121 38.5009 226.129 38.1777 226.129 37.7931ZM134.125 43.2103C134.125 41.3773 133.887 39.6711 133.432 38.0959C132.968 36.5165 132.237 35.1458 131.251 33.992C130.257 32.8382 129.008 31.9462 127.492 31.2916C125.976 30.6492 124.025 30.326 121.644 30.326H116.958V56.6962H121.686C123.904 56.6962 125.767 56.4261 127.279 55.8819C128.795 55.3459 130.053 54.5153 131.076 53.3983C132.087 52.2813 132.855 50.8779 133.357 49.1963C133.87 47.5106 134.125 45.518 134.125 43.2103ZM138.962 43.0344C138.962 45.968 138.578 48.5335 137.814 50.7225C137.049 52.9114 135.926 54.7281 134.455 56.1683C132.985 57.6086 131.18 58.6888 129.042 59.4048C126.907 60.1208 124.351 60.4768 121.394 60.4768H114.067C113.658 60.4768 113.273 60.3417 112.906 60.0758C112.542 59.7976 112.359 59.3229 112.359 58.6437V28.4152C112.359 27.736 112.542 27.2614 112.906 26.9831C113.269 26.7172 113.653 26.5822 114.067 26.5822H121.907C124.902 26.5822 127.429 26.9586 129.501 27.7196C131.565 28.4807 133.298 29.569 134.702 31.0011C136.097 32.4208 137.158 34.1475 137.876 36.1687C138.595 38.1981 138.962 40.4853 138.962 43.0344ZM246.947 51.013C246.947 50.0023 246.785 49.1104 246.446 48.3493C246.116 47.5801 245.644 46.9296 245.005 46.4099C244.374 45.8821 243.581 45.4893 242.633 45.2111C241.676 44.9411 240.477 44.806 239.028 44.806H233.527V56.7493H240.206C241.267 56.7493 242.177 56.6225 242.963 56.3811C243.748 56.1397 244.441 55.7715 245.034 55.2927C245.636 54.8181 246.104 54.2207 246.438 53.5047C246.776 52.7928 246.947 51.9622 246.947 51.013ZM244.859 35.5959C244.859 34.7735 244.742 34.0329 244.512 33.3701C244.283 32.7073 243.919 32.1467 243.418 31.6803C242.917 31.2138 242.269 30.8579 241.463 30.6165C240.661 30.3751 239.6 30.2482 238.28 30.2482H233.527V41.2259H238.765C239.959 41.2259 240.928 41.0745 241.659 40.7595C242.39 40.4567 242.992 40.0434 243.476 39.5361C243.961 39.0165 244.308 38.4191 244.537 37.7276C244.75 37.0321 244.859 36.3283 244.859 35.5959ZM251.785 50.7552C251.785 51.819 251.647 52.801 251.375 53.7052C251.091 54.6013 250.711 55.4114 250.21 56.1274C249.709 56.8434 249.107 57.4695 248.401 58.0136C247.699 58.5496 246.906 59.0079 246.029 59.372C245.143 59.7403 244.195 60.0144 243.192 60.1944C242.19 60.3827 241.029 60.4727 239.734 60.4727H230.69C230.281 60.4727 229.897 60.3376 229.533 60.0717C229.166 59.7935 228.986 59.3188 228.986 58.6396V28.4152C228.986 27.736 229.17 27.2614 229.533 26.9831C229.897 26.7172 230.281 26.5822 230.69 26.5822H238.556C240.619 26.5822 242.315 26.7704 243.631 27.155C244.955 27.5396 246.058 28.1042 246.935 28.8366C247.82 29.569 248.489 30.4733 248.923 31.5371C249.37 32.6009 249.6 33.8079 249.6 35.1499C249.6 35.956 249.5 36.7211 249.299 37.4576C249.107 38.19 248.815 38.8692 248.435 39.487C248.05 40.1048 247.578 40.6572 246.993 41.1482C246.417 41.6392 245.753 42.032 245.005 42.3552C245.945 42.527 246.831 42.8462 247.653 43.3126C248.472 43.7709 249.186 44.3601 249.805 45.0761C250.419 45.7921 250.899 46.6309 251.258 47.5965C251.601 48.5457 251.785 49.6014 251.785 50.7552ZM269.002 49.0858H265.235C264.019 49.0858 262.971 49.184 262.077 49.3804C261.191 49.585 260.452 49.8796 259.859 50.2765C259.274 50.6693 258.835 51.1439 258.564 51.6881C258.292 52.2404 258.155 52.8664 258.155 53.5825C258.155 54.8058 258.547 55.7796 259.341 56.5079C260.134 57.2321 261.25 57.5963 262.67 57.5963C263.827 57.5963 264.896 57.3099 265.89 56.7289C266.876 56.1561 267.916 55.2723 269.002 54.0816V49.0858ZM273.388 59.8467C273.388 60.0512 273.317 60.2108 273.171 60.309C273.033 60.4154 272.833 60.4972 272.586 60.5504C272.331 60.6036 271.964 60.6322 271.492 60.6322C271.028 60.6322 270.652 60.6036 270.377 60.5504C270.105 60.4972 269.905 60.4195 269.775 60.309C269.646 60.2108 269.591 60.0512 269.591 59.8467V57.4858C268.534 58.5865 267.365 59.4416 266.07 60.0512C264.784 60.6609 263.413 60.9719 261.972 60.9719C260.703 60.9719 259.554 60.8123 258.53 60.4768C257.507 60.1535 256.634 59.6912 255.911 59.0815C255.189 58.4637 254.625 57.715 254.224 56.8312C253.831 55.9351 253.631 54.9245 253.631 53.7911C253.631 52.4573 253.906 51.3157 254.454 50.3297C255.009 49.3559 255.807 48.5416 256.835 47.8993C257.866 47.2487 259.132 46.7659 260.632 46.4427C262.127 46.1194 263.819 45.9599 265.686 45.9599H269.002V44.1268C269.002 43.2144 268.902 42.4125 268.71 41.7128C268.509 41.0172 268.2 40.4362 267.762 39.978C267.323 39.5156 266.759 39.1638 266.066 38.9224C265.372 38.6891 264.512 38.5746 263.501 38.5746C262.407 38.5746 261.438 38.7014 260.573 38.951C259.704 39.2088 258.948 39.487 258.301 39.7898C257.645 40.0925 257.106 40.3708 256.667 40.6285C256.229 40.8781 255.911 41.005 255.69 41.005C255.552 41.005 255.427 40.9681 255.314 40.9068C255.206 40.8331 255.114 40.7267 255.03 40.5835C254.959 40.4485 254.892 40.2726 254.859 40.0475C254.821 39.8348 254.805 39.5934 254.805 39.3315C254.805 38.8937 254.842 38.5459 254.905 38.2963C254.967 38.0468 255.114 37.8054 255.36 37.5721C255.598 37.3471 256.008 37.0812 256.601 36.7784C257.185 36.4756 257.862 36.1974 258.627 35.9396C259.391 35.69 260.235 35.4813 261.145 35.3136C262.048 35.1417 262.971 35.064 263.902 35.064C265.627 35.064 267.098 35.2604 268.309 35.645C269.524 36.0296 270.502 36.5943 271.25 37.3348C271.997 38.0754 272.544 38.996 272.883 40.0966C273.221 41.1973 273.392 42.4738 273.392 43.9427V59.8467H273.388ZM297.369 45.4361C297.369 43.7627 297.223 42.3265 296.922 41.1277C296.629 39.9412 296.145 38.8937 295.468 37.9977C294.791 37.1139 293.898 36.3979 292.803 35.87C291.709 35.334 290.36 35.064 288.751 35.064C287.381 35.064 286.024 35.4118 284.679 36.0992C283.33 36.7866 281.976 37.879 280.627 39.3602V36.2465C280.627 36.1033 280.589 35.9887 280.535 35.8864C280.473 35.7964 280.364 35.7064 280.226 35.6286C280.08 35.5468 279.879 35.5018 279.625 35.4773C279.37 35.4527 279.04 35.4322 278.647 35.4322C278.234 35.4322 277.908 35.4486 277.661 35.4773C277.407 35.5059 277.206 35.5509 277.039 35.6286C276.884 35.7105 276.776 35.7964 276.722 35.8864C276.667 35.9846 276.638 36.1033 276.638 36.2465V59.818C276.638 59.953 276.676 60.0758 276.738 60.1658C276.793 60.264 276.914 60.3458 277.085 60.4154C277.248 60.485 277.478 60.5381 277.762 60.575C278.054 60.6077 278.409 60.6282 278.831 60.6282C279.278 60.6282 279.641 60.6077 279.934 60.575C280.218 60.5381 280.435 60.485 280.598 60.4154C280.752 60.3417 280.874 60.264 280.945 60.1658C281.02 60.0758 281.053 59.953 281.053 59.818V43.3413C282.256 41.856 283.417 40.7308 284.528 39.9616C285.631 39.1924 286.738 38.8078 287.841 38.8078C288.697 38.8078 289.445 38.9674 290.096 39.2824C290.752 39.5975 291.283 40.0516 291.692 40.6408C292.101 41.2423 292.411 41.946 292.624 42.7684C292.841 43.5827 292.941 44.6628 292.941 46.0131V59.8139C292.941 59.949 292.979 60.0717 293.05 60.1617C293.125 60.2599 293.242 60.3417 293.396 60.4113C293.559 60.4809 293.781 60.534 294.065 60.5709C294.357 60.6036 294.72 60.6241 295.167 60.6241C295.585 60.6241 295.944 60.6036 296.237 60.5709C296.521 60.534 296.738 60.4809 296.901 60.4113C297.064 60.3377 297.177 60.2599 297.248 60.1617C297.319 60.0717 297.356 59.949 297.356 59.8139V45.4361H297.369ZM320 59.7935C320 59.6339 319.954 59.4621 319.854 59.282C319.754 59.0938 319.591 58.8524 319.361 58.5578L309.578 46.1235L318.296 37.5762C318.559 37.298 318.751 37.0566 318.872 36.8438C318.981 36.6393 319.048 36.4347 319.048 36.2178C319.048 36.0664 319.002 35.9314 318.926 35.8414C318.843 35.7432 318.709 35.6614 318.525 35.6C318.333 35.5386 318.087 35.5018 317.786 35.4732C317.485 35.4445 317.109 35.4282 316.663 35.4282C316.232 35.4282 315.869 35.4445 315.568 35.4732C315.267 35.4977 315.004 35.5427 314.783 35.6245C314.557 35.7064 314.365 35.8046 314.206 35.911C314.044 36.0255 313.889 36.1687 313.751 36.3488L304.662 46.1358V27.3432C304.662 27.2 304.624 27.0732 304.553 26.975C304.478 26.8686 304.361 26.7786 304.207 26.709C304.044 26.6476 303.822 26.5904 303.538 26.5576C303.246 26.5208 302.882 26.5044 302.435 26.5044C302.018 26.5044 301.659 26.5208 301.366 26.5576C301.082 26.5944 300.857 26.6476 300.689 26.709C300.514 26.7786 300.397 26.8686 300.343 26.975C300.28 27.0732 300.243 27.2 300.243 27.3432V59.8221C300.243 59.9571 300.28 60.0799 300.343 60.1699C300.397 60.2681 300.514 60.3499 300.689 60.4195C300.852 60.489 301.082 60.5422 301.366 60.5791C301.659 60.6159 302.014 60.6322 302.435 60.6322C302.882 60.6322 303.25 60.6159 303.538 60.5791C303.822 60.5422 304.039 60.489 304.207 60.4195C304.361 60.3458 304.478 60.2681 304.553 60.1699C304.628 60.0799 304.662 59.9571 304.662 59.8221V46.7536L314.82 59.7976C314.929 59.949 315.05 60.0922 315.175 60.1985C315.313 60.3131 315.485 60.4031 315.706 60.4645C315.915 60.5177 316.182 60.5627 316.491 60.5913C316.8 60.62 317.206 60.6363 317.678 60.6363C318.145 60.6363 318.526 60.62 318.826 60.5831C319.135 60.5463 319.365 60.4931 319.541 60.4236C319.712 60.3499 319.833 60.2722 319.904 60.1617C319.967 60.0512 320 59.9285 320 59.7935Z" fill="#CE1E2C"/>
</svg>
